<svg width="15" height="15" viewBox="0 0 15 15" fill="none" xmlns="http://www.w3.org/2000/svg">
<path d="M6.09623 0.87035C6.40892 -0.234311 7.97467 -0.234308 8.28736 0.870353L9.267 4.33114C9.37468 4.71157 9.67201 5.0089 10.0524 5.11659L13.5132 6.09623C14.6179 6.40892 14.6179 7.97467 13.5132 8.28736L10.0524 9.267C9.67201 9.37468 9.37468 9.67201 9.267 10.0524L8.28736 13.5132C7.97467 14.6179 6.40892 14.6179 6.09622 13.5132L5.11659 10.0524C5.0089 9.67201 4.71157 9.37468 4.33114 9.267L0.87035 8.28736C-0.234311 7.97467 -0.234308 6.40892 0.870353 6.09622L4.33114 5.11659C4.71157 5.0089 5.0089 4.71157 5.11659 4.33114L6.09623 0.87035Z" fill="#B9FD50"/>
</svg>
