<svg width="42" height="42" viewBox="0 0 42 42" fill="none" xmlns="http://www.w3.org/2000/svg">
<path d="M16.6378 27.5533C16.2667 26.2984 15.2851 25.3168 14.0302 24.9457L0.886622 21.0587C0.425602 20.9223 0.4256 20.2694 0.88662 20.133L14.0302 16.246C15.2851 15.8749 16.2667 14.8933 16.6378 13.6384L20.5248 0.494802C20.6612 0.033782 21.3142 0.033781 21.4505 0.494801L25.3375 13.6384C25.7087 14.8933 26.6902 15.8749 27.9451 16.246L41.0887 20.133C41.5497 20.2694 41.5497 20.9223 41.0887 21.0587L27.9451 24.9457C26.6902 25.3168 25.7087 26.2984 25.3375 27.5533L21.4505 40.6969C21.3142 41.1579 20.6612 41.1579 20.5248 40.6969L16.6378 27.5533Z" fill="#B9FD50" fill-opacity="0.25"/>
</svg>
