<svg width="18" height="18" viewBox="0 0 18 18" fill="none" xmlns="http://www.w3.org/2000/svg">
<path d="M5.41599 8.74496C5.73347 7.56027 6.95123 6.34251 8.13592 6.02503L15.5218 4.04568C16.7065 3.72819 17.4095 4.4312 17.0921 5.6159L15.1127 13.0018C14.7952 14.1865 13.5775 15.4043 12.3928 15.7217L5.00686 17.7011C3.82216 18.0186 3.11915 17.3156 3.43664 16.1309L5.41599 8.74496Z" fill="#CDD0D8"/>
<path d="M2.45505 5.78393C2.77253 4.59924 3.99029 3.38148 5.17498 3.064L12.5609 1.08465C13.7456 0.767163 14.4486 1.47017 14.1311 2.65487L12.1518 10.0408C11.8343 11.2255 10.6165 12.4432 9.43184 12.7607L2.04592 14.7401C0.861228 15.0575 0.158216 14.3545 0.475702 13.1698L2.45505 5.78393Z" fill="#CDD0D8"/>
</svg>
