<svg width="16" height="18" viewBox="0 0 16 18" fill="none" xmlns="http://www.w3.org/2000/svg">
<path d="M13.2546 9.39432C11.8822 10.9277 9.88783 11.8927 7.66803 11.8927C5.44824 11.8927 3.45382 10.9277 2.08142 9.39432C3.45382 7.86095 5.44824 6.89595 7.66803 6.89595C9.88783 6.89595 11.8822 7.86095 13.2546 9.39432Z" fill="white"/>
<path fill-rule="evenodd" clip-rule="evenodd" d="M0.172852 14.391C0.172852 10.2516 3.52852 6.89595 7.66795 6.89595C5.44815 6.89595 3.45375 7.86095 2.08135 9.39432C3.45375 10.9277 5.44816 11.8927 7.66796 11.8927C9.88775 11.8927 11.8822 10.9277 13.2546 9.39432C14.4414 10.7203 15.163 12.4714 15.163 14.391V17.2225C15.163 17.5905 14.8648 17.8888 14.4968 17.8888H0.839082C0.471133 17.8888 0.172852 17.5905 0.172852 17.2225V14.391ZM13.2546 9.39432C13.2546 9.39432 13.2546 9.39433 13.2546 9.39432Z" fill="#CDD0D8"/>
<path fill-rule="evenodd" clip-rule="evenodd" d="M4.85662 11.3476C3.78643 10.9143 2.83908 10.2409 2.08135 9.39432C3.45375 7.86095 5.44816 6.89595 7.66796 6.89595C9.88775 6.89595 11.8822 7.86094 13.2546 9.39431C13.2546 9.39431 13.2546 9.39431 13.2546 9.39431C14.4414 8.06829 15.163 6.31721 15.163 4.39759V1.5661C15.163 1.19816 14.8648 0.899873 14.4968 0.899873L0.839082 0.899872C0.471134 0.899872 0.172852 1.19815 0.172852 1.5661L0.172852 4.39758C0.172851 7.54282 2.11018 10.2356 4.85662 11.3476Z" fill="#CDD0D8"/>
</svg>
