<svg width="18" height="18" viewBox="0 0 18 18" fill="none" xmlns="http://www.w3.org/2000/svg">
<path fill-rule="evenodd" clip-rule="evenodd" d="M9.37274 14.2078C12.0312 14.2078 14.1863 12.0527 14.1863 9.39432C14.1863 6.73588 12.0312 4.5808 9.37274 4.5808C6.71431 4.5808 4.55922 6.73588 4.55922 9.39432C4.55922 12.0527 6.71431 14.2078 9.37274 14.2078ZM9.37274 17.8888C14.0641 17.8888 17.8672 14.0857 17.8672 9.39432C17.8672 4.70296 14.0641 0.899872 9.37274 0.899872C4.68139 0.899872 0.878296 4.70296 0.878296 9.39432C0.878296 14.0857 4.68139 17.8888 9.37274 17.8888Z" fill="#CDD0D8"/>
<path d="M9.46993 9.5803C10.3545 8.69569 11.7888 8.69569 12.6734 9.5803L17.0781 13.9851C17.9627 14.8697 17.9627 16.3039 17.0781 17.1885V17.1885C16.1935 18.0731 14.7593 18.0731 13.8747 17.1885L9.46993 12.7838C8.58532 11.8992 8.58532 10.4649 9.46993 9.5803V9.5803Z" fill="#CDD0D8"/>
<path d="M10.7067 14.0206L13.5042 16.8181C14.846 16.0698 15.9639 14.9682 16.7321 13.6391L13.9575 10.8646C13.4702 12.3856 12.2469 13.5773 10.7067 14.0206Z" fill="white"/>
</svg>
