<svg width="18" height="18" viewBox="0 0 18 18" fill="none" xmlns="http://www.w3.org/2000/svg">
<path d="M6.36535 13.0348C9.71631 13.0348 12.4328 10.3183 12.4328 6.96734C12.4328 6.58756 12.3979 6.21594 12.3312 5.85549C11.9707 5.78874 11.5991 5.75385 11.2193 5.75385C7.86835 5.75385 5.15186 8.47034 5.15186 11.8213C5.15186 12.2011 5.18675 12.5727 5.2535 12.9332C5.61395 12.9999 5.98557 13.0348 6.36535 13.0348Z" fill="white"/>
<path fill-rule="evenodd" clip-rule="evenodd" d="M5.25347 12.9331C2.4335 12.4109 0.297852 9.93852 0.297852 6.96733C0.297852 3.61637 3.01435 0.899872 6.36531 0.899872C9.3365 0.899872 11.8089 3.03552 12.3311 5.85549C11.9707 5.78873 11.5991 5.75384 11.2193 5.75384C7.86832 5.75384 5.15182 8.47034 5.15182 11.8213C5.15182 12.2011 5.18671 12.5727 5.25347 12.9331Z" fill="#CDD0D8"/>
<path fill-rule="evenodd" clip-rule="evenodd" d="M6.36527 13.0348C9.71623 13.0348 12.4327 10.3183 12.4327 6.9673C12.4327 6.58753 12.3978 6.2159 12.3311 5.85545C15.1511 6.3777 17.2867 8.85008 17.2867 11.8213C17.2867 15.1722 14.5702 17.8887 11.2192 17.8887C8.24804 17.8887 5.77566 15.7531 5.25342 12.9331C5.61386 12.9999 5.98549 13.0348 6.36527 13.0348Z" fill="#CDD0D8"/>
</svg>
