<svg width="16" height="16" viewBox="0 0 16 16" fill="none" xmlns="http://www.w3.org/2000/svg">
<path d="M8.19097 15.8803C12.4558 15.8803 15.9132 12.4229 15.9132 8.15807C15.9132 3.89321 12.4558 0.435852 8.19097 0.435852C3.92611 0.435852 0.46875 3.89321 0.46875 8.15807C0.46875 12.4229 3.92611 15.8803 8.19097 15.8803Z" fill="#B9FD50"/>
<path d="M10.4601 7.24142L9.7603 9.44708C9.7603 9.27815 9.27766 5.61975 9.27766 5.61975C8.16759 5.61975 7.57877 6.40645 7.26988 7.24142L6.41561 9.4519C6.41561 9.29263 6.29495 7.26072 6.29495 7.26072C6.25374 6.82086 6.05265 6.41137 5.72977 6.10984C5.40688 5.8083 4.98462 5.63564 4.54297 5.62458L5.45033 11.1653C6.60866 11.1653 7.23609 10.3786 7.55946 9.5436L8.28342 7.66131C8.28342 7.73854 8.76606 11.1653 8.76606 11.1653C9.23972 11.1647 9.70087 11.0132 10.0827 10.7329C10.4645 10.4527 10.7472 10.0581 10.8897 9.60635L12.5306 5.61975C11.3723 5.61975 10.7642 6.40645 10.4553 7.24142H10.4601Z" fill="#111204"/>
</svg>
